<svg id="图层_1" data-name="图层 1" xmlns="http://www.w3.org/2000/svg" viewBox="0 0 86.62 20.73"><defs><style>.cls-1{fill:#fff;}.cls-2{fill:#fab915;}</style></defs><title>logo122</title><g id="QeUAiR.tif"><path class="cls-1" d="M47.31.28c.76.08,1.53.1,2.28.24A5,5,0,0,1,53.72,4a4.7,4.7,0,0,1-1.31,5.06,11.13,11.13,0,0,1-1.27.94,5.11,5.11,0,0,1,3.65,3.55H53c-.78,0-1.56,0-2.34,0a.46.46,0,0,1-.34-.15A2.73,2.73,0,0,0,48,12.1c-1.2-.07-2.4-.1-3.6-.13-.74,0-1.48,0-2.22,0-.25,0-.34-.08-.34-.33,0-.95,0-1.89,0-2.84,0-.3.15-.32.38-.32,1.6,0,3.2,0,4.8,0a4.8,4.8,0,0,0,1.17-.15,2.2,2.2,0,0,0,1.71-2.47,2.1,2.1,0,0,0-2.17-2c-1.76-.06-3.53-.06-5.29-.08h-.48V.28Z" transform="translate(-25.51 -0.27)"/><path class="cls-1" d="M37.71.28V3.74c-.41,0-.83,0-1.25,0a.42.42,0,0,0-.32.17c-.56,1.5-1.11,3-1.67,4.57,1,0,2,0,2.91,0,.33,0,.45.07.45.42,0,.88,0,1.76,0,2.65,0,.31-.08.42-.41.42-1.27,0-2.53,0-3.8,0a.42.42,0,0,0-.49.35,9.77,9.77,0,0,1-.39,1c0,.1-.16.22-.24.23-1.35,0-2.71,0-4.09,0a2.92,2.92,0,0,1,.08-.28l5-12.74a2.85,2.85,0,0,1,.14-.27Z" transform="translate(-25.51 -0.27)"/><path class="cls-1" d="M57.06,21V.28h.46V21Z" transform="translate(-25.51 -0.27)"/><path class="cls-1" d="M41.94,21l0-.91H52.06l0,.09a8.3,8.3,0,0,1-1.4.49c-.85.14-1.72.18-2.59.26l-.72.06Z" transform="translate(-25.51 -0.27)"/><path class="cls-1" d="M25.51,21c.09-.26.17-.53.28-.79a.26.26,0,0,1,.19-.14h4.27l-.36.93Z" transform="translate(-25.51 -0.27)"/><path class="cls-1" d="M73.62,7.31V8.6H65.21c-.68,0-.69,0-.77.77h8.44a1.16,1.16,0,0,1,.48.07c.24.12.23.43,0,.68a9.91,9.91,0,0,1-2.72,2.22,2.73,2.73,0,0,0-.23.16c.43.13.79.26,1.17.35.6.14,1.2.27,1.8.38.21,0,.28.11.27.32s0,.63,0,1a16.06,16.06,0,0,1-4.58-1.06,1,1,0,0,0-.76,0,16.24,16.24,0,0,1-4.75,1.07c0-.37,0-.74,0-1.1,0-.07.17-.15.28-.18l3.08-.68L64.47,11l0-.08a24,24,0,0,1,2.47,0,2.42,2.42,0,0,1,1,.57.93.93,0,0,0,1.35-.12c.32-.3.67-.56,1-.84a2.52,2.52,0,0,0,.24-.29l-.49,0c-1.85,0-3.71,0-5.56,0a.42.42,0,0,0-.48.35c-.39,1.23-.82,2.44-1.23,3.67a.41.41,0,0,1-.47.33c-.6,0-1.2,0-1.87,0a29.73,29.73,0,0,0,2.08-5.91H60.49V7.32h1.82c.65,0,.59-.09.6-.52A4,4,0,0,1,63,6.35h2l-.08,1Z" transform="translate(-25.51 -0.27)"/><path class="cls-1" d="M80.11,12.94l-4,1.55c.13-.58.23-1,.35-1.49,0-.09.18-.15.29-.2,1-.45,2-.9,3.05-1.33a.49.49,0,0,0,.31-.53c0-2.65,0-5.3,0-7.94V2.52h2.18V10C83,9.44,83.52,9,84,8.53a18.29,18.29,0,0,0,4-5,.6.6,0,0,1,.4-.25c.39-.05.79-.06,1.19-.08l.09,0c0,.09-.07.19-.12.28a19.57,19.57,0,0,1-6.95,7.92.64.64,0,0,0-.36.68,6,6,0,0,1,0,.73c0,.73.14.86.88.86h3.7v.82h-.43c-1.68,0-3.35,0-5,0-.93,0-1.39-.39-1.31-1.3A1.69,1.69,0,0,0,80.11,12.94Z" transform="translate(-25.51 -0.27)"/><path class="cls-1" d="M95.45,8.68l1-.17V9.78a4,4,0,0,1-.62.13c-.33,0-.38.18-.37.47,0,1,0,2,0,3A1,1,0,0,1,94.3,14.5c-.7,0-1.4,0-2.14,0v-.79c.13,0,.29,0,.39-.05s.48-.29.48-.45c0-.9,0-1.81,0-2.75l-1,.17V9.36l1-.21V5.65H92V4.36h1V.78H95.4V4.34h1V5.63h-1Z" transform="translate(-25.51 -0.27)"/><path class="cls-1" d="M105.67,14.5h-2.86a.58.58,0,0,1-.3-.16L101,13.12c-.42.36-.85.73-1.28,1.11a1,1,0,0,1-.76.28c-.84,0-1.69,0-2.62,0l3.26-2.79L97,8.64c.88,0,1.67,0,2.46,0,.1,0,.21.12.28.21.38.45.74.91,1.16,1.42l1.64-2H96.83V7.43l.34,0h7.71c.17,0,.46.07.49.17a.71.71,0,0,1-.14.54c-.87,1.12-1.77,2.22-2.65,3.33l-.23.29Z" transform="translate(-25.51 -0.27)"/><path class="cls-1" d="M96.29,6.88a6.17,6.17,0,0,0,1.07-4.19c0-.2,0-.41,0-.61,0-.69.31-1,1-1h5a.87.87,0,0,1,1,1c0,1.18,0,2.35,0,3.53,0,.35.13.52.46.51.54,0,.78.26.89.77l-.32,0h-2.3c-.72,0-1-.31-1-1,0-1,0-2.1,0-3.15,0-.34-.1-.49-.46-.47s-.92,0-1.38,0-.52,0-.55.54a24,24,0,0,1-.24,2.55,5.31,5.31,0,0,1-.56,1.33.43.43,0,0,1-.32.2C97.82,6.89,97.1,6.88,96.29,6.88Z" transform="translate(-25.51 -0.27)"/><path class="cls-1" d="M76.54,10.38c.14-1.47.3-2.93.43-4.39.07-.8.1-1.61.13-2.41,0-.27.08-.39.37-.37.6,0,1.2,0,1.85,0a52.05,52.05,0,0,1-.66,7.17Z" transform="translate(-25.51 -0.27)"/><path class="cls-1" d="M73.63,7H71.76c0-.21,0-.41,0-.61a.53.53,0,0,0-.56-.59l-.5,0H63.34c-.77,0-.85.08-.86.87,0,.11,0,.22,0,.35H60.61a11.15,11.15,0,0,1,0-1.29A.88.88,0,0,1,61.55,5H72.68a.92.92,0,0,1,.94.87c0,.27,0,.54,0,.81C73.63,6.75,73.63,6.86,73.63,7Z" transform="translate(-25.51 -0.27)"/><path class="cls-1" d="M87.53,14.37l-.68-5.81H89l.65,5.81Z" transform="translate(-25.51 -0.27)"/><path class="cls-1" d="M83.13.84h2.18l.47,5H83.61Z" transform="translate(-25.51 -0.27)"/><path class="cls-1" d="M60.84,2.19v-.8h8.48A2.9,2.9,0,0,0,71,1.07a.22.22,0,0,1,.11,0h2.28a1.28,1.28,0,0,1-.92,1,2.6,2.6,0,0,1-.93.17H61.05Z" transform="translate(-25.51 -0.27)"/><path class="cls-1" d="M106.33,20.39h-.73V16.92l-.1,0-.67,1.6a1.78,1.78,0,0,1-.19.42c-.11.14-.27.34-.42.35a.61.61,0,0,1-.42-.33c-.27-.56-.49-1.15-.73-1.73a.8.8,0,0,0-.21-.32v3.5h-.75v-.75q0-1.57,0-3.15c0-.23,0-.48.27-.55s.68,0,.84.36l1,2.4,1-2.33c.18-.44.4-.56.86-.43a.44.44,0,0,1,.27.31C106.34,17.62,106.33,19,106.33,20.39Z" transform="translate(-25.51 -0.27)"/><path class="cls-1" d="M83.48,19.37V16h.7a2.79,2.79,0,0,1,0,.29q0,1.82,0,3.65c0,.22,0,.46-.27.52a.54.54,0,0,1-.65-.27c-.57-1-1.16-1.9-1.74-2.85l-.27-.41v3.48h-.75v-2c0-.61,0-1.23,0-1.84,0-.21,0-.47.23-.54a.57.57,0,0,1,.7.3c.55.95,1.14,1.88,1.71,2.82l.2.32Z" transform="translate(-25.51 -0.27)"/><path class="cls-1" d="M70.84,18.1a.8.8,0,0,1,.58.94c0,.23,0,.46,0,.69a.63.63,0,0,1-.68.66H68.32c-.31,0-.43-.14-.43-.44q0-1.78,0-3.56c0-.32.12-.47.45-.46h2.14a.64.64,0,0,1,.71.71C71.19,17.15,71.36,17.69,70.84,18.1Zm-2.27.2c0,.56,0,1.07,0,1.58a.36.36,0,0,0,.24.25c.5,0,1,0,1.5,0a.4.4,0,0,0,.41-.42c0-.33,0-.67,0-1a.39.39,0,0,0-.42-.41Zm0-.29c.54,0,1,0,1.53,0a.57.57,0,0,0,.4-.36,3.35,3.35,0,0,0,0-1.06.54.54,0,0,0-.38-.34,8,8,0,0,0-1.3,0,.35.35,0,0,0-.25.24C68.55,17,68.57,17.46,68.57,18Z" transform="translate(-25.51 -0.27)"/><path class="cls-1" d="M64.39,20.36c-.73.1-.72.1-1-.48-.15-.35-.22-.83-.49-1s-.74,0-1.12-.08a.5.5,0,0,0-.63.43,4.88,4.88,0,0,1-.25.64c-.25.61-.25.61-1,.49L61,17.77c.21-.52.4-1,.64-1.56a.59.59,0,0,1,.42-.28c.19,0,.5.07.55.19C63.24,17.52,63.8,18.92,64.39,20.36Zm-2.91-1.85h1.39l-.7-1.7Z" transform="translate(-25.51 -0.27)"/><path class="cls-1" d="M110.7,2.23c.16-.42.3-.74.4-1.08s.4-.4.73-.36.31.28.31.51q0,1.13,0,2.26a.6.6,0,0,1,0,.13h-.82V2.3l-.08,0a4.85,4.85,0,0,1-.22.57c-.05.09-.17.21-.26.21s-.2-.12-.25-.21a3.4,3.4,0,0,0-.29-.55v1.4h-.91c0-.88,0-1.74,0-2.6a.44.44,0,0,1,.31-.3c.25,0,.56-.08.69.26S110.53,1.77,110.7,2.23Z" transform="translate(-25.51 -0.27)"/><path class="cls-1" d="M97.19,18.13c0-.33,0-.67,0-1a1.27,1.27,0,0,1,1.29-1.2h.88A1.23,1.23,0,0,1,100.66,17a15.19,15.19,0,0,1,0,2.22,1.23,1.23,0,0,1-1.28,1.13H98.5a1.27,1.27,0,0,1-1.31-1.23c0-.34,0-.69,0-1Zm.66,0h0c0,.31,0,.61,0,.92a1.1,1.1,0,0,0,1.08,1.08,1.07,1.07,0,0,0,1.07-1,14.77,14.77,0,0,0,0-1.84,1.07,1.07,0,0,0-1.09-1.06,1.11,1.11,0,0,0-1.06,1.1C97.83,17.57,97.85,17.85,97.85,18.13Z" transform="translate(-25.51 -0.27)"/><path class="cls-1" d="M95.77,17.58h-.53a6,6,0,0,0-.11-.63,1,1,0,0,0-.9-.76.87.87,0,0,0-.92.72,14.81,14.81,0,0,0,0,2.47.86.86,0,0,0,.88.72,1,1,0,0,0,.93-.71,5.05,5.05,0,0,0,.11-.6l.27,0h.26a1.26,1.26,0,0,1-1.24,1.61H94a1.25,1.25,0,0,1-1.37-1.27c0-.64,0-1.28,0-1.92A1.24,1.24,0,0,1,94,15.92h.46A1.29,1.29,0,0,1,95.77,17.58Z" transform="translate(-25.51 -0.27)"/><path class="cls-1" d="M65.78,2.72c.68,0,1.32,0,2,0,.07,0,.17.11.19.18.13.51.23,1,.36,1.58h-2a.25.25,0,0,1-.17-.15C66,3.81,65.9,3.29,65.78,2.72Z" transform="translate(-25.51 -0.27)"/><path class="cls-1" d="M72.58,2.72l-.4,1.76h-2.1c.12-.56.24-1.09.36-1.62a.25.25,0,0,1,.19-.13Z" transform="translate(-25.51 -0.27)"/><path class="cls-1" d="M75,15.95h.73v4.19c.42,0,.78,0,1.15,0,.09,0,.17.09.26.13a.81.81,0,0,1-.27.12H75.45c-.27,0-.42-.11-.42-.38C75,18.67,75,17.33,75,15.95Z" transform="translate(-25.51 -0.27)"/><path class="cls-1" d="M64.05,4.49c-.67,0-1.29,0-1.92,0a.31.31,0,0,1-.23-.18c-.13-.51-.24-1-.36-1.56h2.1Z" transform="translate(-25.51 -0.27)"/><path class="cls-1" d="M108.47,1.27V3.69h-1V1.28l-.6,0,0-.42h2.21v.42Z" transform="translate(-25.51 -0.27)"/><path class="cls-1" d="M89.11,16.3c-.34.55-.67,1.09-1,1.62a.48.48,0,0,0,0,.65c.44.58.84,1.17,1.28,1.78a.86.86,0,0,1-1.11-.41,9.23,9.23,0,0,0-.89-1.25.62.62,0,0,1,0-.88,5.86,5.86,0,0,0,.62-1A.81.81,0,0,1,89.11,16.3Z" transform="translate(-25.51 -0.27)"/><path class="cls-1" d="M86.37,20.38h-.66V16h.66Z" transform="translate(-25.51 -0.27)"/><path class="cls-1" d="M78.37,20.37v-3h.69v3Z" transform="translate(-25.51 -0.27)"/><rect class="cls-1" x="52.85" y="15.92" width="0.69" height="0.67" rx="0.33" ry="0.33"/><path class="cls-1" d="M66.39,20.38h-.68v-3h.68Z" transform="translate(-25.51 -0.27)"/><rect class="cls-1" x="40.21" y="15.92" width="0.68" height="0.64" rx="0.32" ry="0.32"/><path class="cls-1" d="M72.87,17.42h.67v3h-.67Z" transform="translate(-25.51 -0.27)"/><rect class="cls-1" x="47.36" y="15.92" width="0.67" height="0.64" rx="0.32" ry="0.32"/><path class="cls-1" d="M91.12,19.58v.79H90.4v-.79Z" transform="translate(-25.51 -0.27)"/><path class="cls-1" d="M41.93,19.14v-.9H54a1.08,1.08,0,0,1-1.17.9H41.93Z" transform="translate(-25.51 -0.27)"/><path class="cls-1" d="M54.77,16.39a.83.83,0,0,1,0,.11c-.14.79-.14.79-.94.79H49.18c.36-.31.7-.61,1.06-.9,0,0,.15,0,.22,0H54.6Z" transform="translate(-25.51 -0.27)"/><path class="cls-1" d="M30.86,18.22a.54.54,0,0,1,0,.12c-.23.8-.23.8-1.08.8H26.34l-.12,0c.09-.25.17-.5.28-.73a.31.31,0,0,1,.23-.14Z" transform="translate(-25.51 -0.27)"/><path class="cls-1" d="M32.29,14.5c-.23.93-.23.93-1.09.93H27.7a.62.62,0,0,1,0-.12c.25-.81.25-.81,1.08-.81h3.51Z" transform="translate(-25.51 -0.27)"/><path class="cls-1" d="M26.93,17.29c.11-.31.19-.55.3-.77a.31.31,0,0,1,.23-.15l4.05,0,.06,0c-.08.23-.15.48-.26.7a.3.3,0,0,1-.22.16Z" transform="translate(-25.51 -0.27)"/><path class="cls-1" d="M50.62,15.4l.07-.9h2c.63,0,1.25,0,1.88,0,.35,0,.45.12.42.44a4.54,4.54,0,0,0,0,.47Z" transform="translate(-25.51 -0.27)"/></g><g id="T4gWUD.tif"><path class="cls-2" d="M37.55,21q0-7.36,0-14.72H42V21Z" transform="translate(-25.51 -0.27)"/></g><g id="T4gWUD.tif-2" data-name="T4gWUD.tif"><path class="cls-2" d="M37.55,3.73q0-1.73,0-3.45H42V3.73Z" transform="translate(-25.51 -0.27)"/></g></svg>